<svg 
 xmlns="http://www.w3.org/2000/svg"
 xmlns:xlink="http://www.w3.org/1999/xlink"
 width="26px" height="24px">
<path fill-rule="evenodd"  fill="rgb(68, 68, 68)"
 d="M25.421,7.534 C25.294,7.663 25.127,7.728 24.960,7.728 C24.793,7.728 24.626,7.663 24.499,7.534 L18.646,1.581 L12.793,7.534 C12.666,7.663 12.499,7.728 12.332,7.728 C12.165,7.728 11.998,7.663 11.871,7.534 C11.616,7.274 11.616,6.854 11.871,6.595 L18.163,0.196 C18.296,0.060 18.472,-0.001 18.646,0.006 C18.820,-0.001 18.996,0.060 19.130,0.196 L25.421,6.595 C25.676,6.854 25.676,7.274 25.421,7.534 ZM13.149,20.251 L13.149,8.467 C13.149,8.100 13.441,7.803 13.801,7.803 C14.162,7.803 14.454,8.100 14.454,8.467 L14.454,20.251 C14.454,20.618 14.162,20.915 13.801,20.915 C13.441,20.915 13.149,20.618 13.149,20.251 ZM11.101,22.667 L21.877,22.667 C22.425,22.667 22.872,22.189 22.872,21.602 L22.872,17.315 L17.668,17.315 C17.308,17.315 17.016,17.018 17.016,16.651 C17.016,16.285 17.308,15.988 17.668,15.988 L22.872,15.988 L22.872,11.436 L17.668,11.436 C17.308,11.436 17.016,11.138 17.016,10.772 C17.016,10.406 17.308,10.109 17.668,10.109 L22.872,10.109 L22.872,8.467 C22.872,8.100 23.164,7.803 23.524,7.803 C23.885,7.803 24.177,8.100 24.177,8.467 L24.177,21.602 C24.177,22.921 23.145,23.994 21.877,23.994 L11.101,23.994 C9.833,23.994 8.800,22.921 8.800,21.602 L8.800,7.822 L6.521,7.822 L6.521,23.234 C6.521,23.601 6.228,23.898 5.868,23.898 C5.508,23.898 5.216,23.601 5.216,23.234 L5.216,7.822 L3.080,7.822 L3.080,23.330 C3.080,23.696 2.788,23.994 2.428,23.994 C2.068,23.994 1.775,23.696 1.775,23.330 L1.775,7.822 L1.301,7.822 C0.941,7.822 0.649,7.525 0.649,7.159 C0.649,6.792 0.941,6.495 1.301,6.495 L5.216,6.495 L5.216,2.964 L1.301,2.964 C0.941,2.964 0.649,2.666 0.649,2.300 C0.649,1.934 0.941,1.637 1.301,1.637 L10.436,1.637 C10.796,1.637 11.088,1.934 11.088,2.300 C11.088,2.666 10.796,2.964 10.436,2.964 L6.521,2.964 L6.521,6.495 L10.436,6.495 C10.796,6.495 11.088,6.792 11.088,7.159 C11.088,7.525 10.796,7.822 10.436,7.822 L10.105,7.822 L10.105,21.602 C10.105,22.189 10.552,22.667 11.101,22.667 Z"/>
</svg>