<svg xmlns="http://www.w3.org/2000/svg" width="16" height="15">
    <defs>
        <filter id="a">
            <feFlood flood-color="#666" flood-opacity="1" result="floodOut"/>
            <feComposite in="floodOut" in2="SourceGraphic" operator="atop" result="compOut"/>
            <feBlend in="compOut" in2="SourceGraphic"/>
        </filter>
    </defs>
    <path fill="#FFF" fill-rule="evenodd" d="M15.111 9.375c-.491 0-.89-.42-.89-.938 0-3.618-2.791-6.562-6.222-6.562-3.43 0-6.222 2.944-6.222 6.562 0 .518-.397.938-.889.938-.491 0-.888-.42-.888-.938C0 3.777 3.581 0 7.999 0 12.418 0 16 3.777 16 8.437c0 .518-.399.938-.889.938zm-8-1.743V4.687c0-.518.398-.937.888-.937.491 0 .89.419.89.937v2.945c1.531.419 2.666 1.873 2.666 3.618 0 2.071-1.592 3.75-3.556 3.75-1.963 0-3.555-1.679-3.555-3.75 0-1.746 1.136-3.199 2.667-3.618zm.888 5.493c.981 0 1.778-.841 1.778-1.875S8.98 9.375 7.999 9.375c-.98 0-1.777.841-1.777 1.875s.797 1.875 1.777 1.875z" filter="url(#a)"/>
</svg>
