<svg xmlns="http://www.w3.org/2000/svg" width="27" height="29">
    <path fill="#3A7EE3" fill-rule="evenodd" d="M12.663.262c1.351.641 1.916 2.263 1.259 3.626-.655 1.362-2.282 1.947-3.634 1.306-1.351-.641-1.915-2.264-1.259-3.626C9.684.206 11.311-.379 12.663.262zM6.226 4.535c1.249.591 1.77 2.09 1.165 3.348-.607 1.258-2.109 1.797-3.357 1.206-1.248-.591-1.769-2.09-1.162-3.348.604-1.257 2.106-1.797 3.354-1.206zm-2.917 6.2a2.289 2.289 0 0 1 1.067 3.07c-.555 1.153-1.933 1.648-3.078 1.106a2.29 2.29 0 0 1-1.066-3.07c.555-1.154 1.933-1.648 3.077-1.106zm.238 6.077a2.079 2.079 0 0 1 .969 2.791c-.503 1.049-1.758 1.5-2.797 1.007a2.08 2.08 0 0 1-.97-2.792 2.111 2.111 0 0 1 2.798-1.006zm2.467 4.83a1.874 1.874 0 0 1 .874 2.514c-.455.944-1.584 1.349-2.519.905a1.873 1.873 0 0 1-.874-2.513 1.9 1.9 0 0 1 2.519-.906zm3.731 3.131a1.667 1.667 0 0 1 .775 2.235 1.69 1.69 0 0 1-2.241.806 1.667 1.667 0 0 1-.777-2.236 1.693 1.693 0 0 1 2.243-.805zm4.167 1.435a1.462 1.462 0 0 1 .68 1.958 1.48 1.48 0 0 1-1.962.705 1.46 1.46 0 0 1-.681-1.958 1.483 1.483 0 0 1 1.963-.705zm4.02-.05c.625.296.886 1.047.583 1.679a1.27 1.27 0 0 1-1.683.604 1.252 1.252 0 0 1-.584-1.679 1.27 1.27 0 0 1 1.684-.604zm3.49-1.208c.521.248.74.875.486 1.402a1.059 1.059 0 0 1-1.404.505 1.045 1.045 0 0 1-.488-1.402 1.062 1.062 0 0 1 1.406-.505zm2.747-2.023a.836.836 0 0 1 .39 1.123.85.85 0 0 1-1.126.404.833.833 0 0 1-.389-1.122.848.848 0 0 1 1.125-.405zm1.917-2.528a.627.627 0 0 1 .294.844.64.64 0 0 1-.847.305.63.63 0 0 1-.294-.845.64.64 0 0 1 .847-.304z"/>
</svg>
