<svg 
 xmlns="http://www.w3.org/2000/svg"
 xmlns:xlink="http://www.w3.org/1999/xlink"
 width="26px" height="23px">
<path fill-rule="evenodd"  fill="rgb(68, 68, 68)"
 d="M25.667,20.738 L25.667,21.843 C25.667,22.412 25.220,22.872 24.669,22.872 L1.682,22.872 C1.131,22.872 0.684,22.412 0.684,21.843 L0.684,20.738 C0.684,20.170 1.131,19.710 1.682,19.710 L4.956,19.710 L1.477,16.124 C0.952,15.582 0.953,14.701 1.477,14.159 L14.779,0.448 C15.304,-0.093 16.159,-0.094 16.685,0.448 L25.185,9.210 C25.710,9.752 25.710,10.634 25.185,11.176 L16.907,19.710 L24.669,19.710 C25.220,19.710 25.667,20.170 25.667,20.738 ZM24.354,10.319 C24.422,10.249 24.422,10.137 24.354,10.067 L15.854,1.305 C15.787,1.235 15.677,1.234 15.609,1.305 L2.309,15.015 C2.241,15.085 2.241,15.198 2.309,15.268 L6.618,19.710 L8.124,21.262 L13.739,21.262 L15.245,19.710 L24.354,10.319 ZM14.491,14.617 L4.410,15.789 C4.385,15.792 4.361,15.793 4.337,15.793 C4.013,15.793 3.733,15.542 3.696,15.201 C3.656,14.836 3.911,14.506 4.265,14.465 L13.841,13.352 L15.061,3.361 C15.105,2.996 15.432,2.740 15.783,2.783 C16.137,2.829 16.388,3.162 16.343,3.527 L15.060,14.039 C15.022,14.343 14.788,14.583 14.491,14.617 Z"/>
</svg>